<svg width="724" height="736" viewBox="0 0 724 736" fill="none" xmlns="http://www.w3.org/2000/svg">
<path d="M639.968 632.749C625.105 648.395 611.045 658.483 599.935 666.455C469.342 760.158 314.814 732.844 281.974 726.174C233.478 716.324 139.736 697.285 71.9616 617.584C-30.5745 497.003 -14.6087 307.031 64.9263 181.63C79.4746 158.692 156.321 31.378 312.512 10.9626C407.036 -1.39366 517.222 23.5263 597.016 90.3769C764.51 230.704 752.584 514.187 639.968 632.749Z" fill="url(#paint0_linear_101_766)"/>
<path d="M494.887 710.457C493.627 710.286 492.501 709.622 491.745 708.604C480.722 693.748 400.576 577.496 507.241 471.232C608.501 370.355 654.401 349.643 660.507 290.372C661.218 283.452 670.577 281.79 673.656 288.03C696.665 334.665 732.513 443.485 613.88 514.911C483.017 593.701 493.743 680.069 500.069 704.613C500.907 707.858 498.205 710.908 494.887 710.457Z" fill="#91B3FA"/>
<path d="M511.116 712.667C508.139 712.26 505.779 709.966 505.319 706.994C502.196 686.778 494.525 611.241 550.174 591.209C611.436 569.159 660.895 626.212 705.929 581.557C708.297 579.207 712.282 581.255 711.717 584.544C707.706 607.871 689.855 661.903 610.425 672.774C525.409 684.411 515.841 694.163 517.558 706.262C518.088 709.992 514.849 713.174 511.116 712.667Z" fill="#91B3FA"/>
<path opacity="0.471" d="M657.546 350.802C656.506 355.199 655.126 359.325 653.477 363.42C651.86 367.513 649.996 371.503 647.964 375.406C643.943 383.24 639.115 390.65 633.831 397.709C623.191 411.793 610.318 424.165 596.129 434.657C589.052 439.873 581.486 444.667 574.01 448.998C566.728 453.222 559.722 457.947 553.012 463.064C539.58 473.296 527.402 485.169 516.649 498.19C495.223 524.247 480.019 555.692 475.013 589.173C472.459 605.876 472.427 622.976 474.729 639.819C477.003 656.682 481.809 673.194 488.146 689.115C488.49 689.966 488.081 690.929 487.23 691.273C486.416 691.601 485.487 691.223 485.112 690.444C477.698 674.709 472.162 657.982 469.096 640.711C467.529 632.085 466.602 623.323 466.337 614.529C466.127 605.735 466.497 596.904 467.605 588.152C469.734 570.634 474.677 553.474 481.793 537.319C488.931 521.157 498.36 506.06 509.375 492.289C520.388 478.499 533.161 466.161 547.129 455.383C554.128 450.006 561.444 445.032 569.083 440.561C576.559 436.272 583.657 431.912 590.535 426.95C604.257 417.148 616.938 405.831 627.851 392.916C633.374 386.516 638.375 379.664 642.945 372.524C647.423 365.368 651.608 357.818 654.621 350.011L654.661 349.909C654.963 349.129 655.837 348.743 656.617 349.043C657.331 349.318 657.717 350.077 657.546 350.802Z" fill="white"/>
<path opacity="0.471" d="M507.588 698.957C507.847 698.224 507.766 697.544 507.742 696.846L507.677 694.762L507.63 690.598C507.632 687.821 507.693 685.046 507.813 682.274C508.06 676.727 508.533 671.186 509.276 665.676C510.79 654.669 513.284 643.693 517.726 633.358C522.12 623.091 528.772 613.282 538.43 606.874C543.239 603.726 548.665 601.487 554.288 600.348C559.908 599.164 565.681 598.988 571.327 599.484C593.459 602.051 615.151 606.294 636.899 609.74C647.733 611.355 658.719 612.796 669.356 611.342C672 610.956 674.604 610.378 677.132 609.564C679.636 608.693 682.096 607.669 684.393 606.322C689.018 603.682 693.084 600.069 696.72 596.063L696.731 596.053C697.232 595.499 698.085 595.457 698.636 595.959C699.18 596.452 699.227 597.289 698.749 597.843C695.066 602.083 690.858 606.002 685.939 608.955C683.497 610.454 680.862 611.625 678.176 612.623C675.465 613.56 672.677 614.24 669.865 614.712C658.538 616.371 647.308 614.959 636.351 613.457C625.362 611.893 614.51 609.856 603.621 608.094C592.766 606.328 581.783 604.619 570.973 603.351C565.636 602.836 560.242 602.96 555.039 604.01C549.828 605.018 544.845 607.029 540.388 609.882C531.402 615.605 524.884 624.709 520.458 634.566C515.98 644.47 513.318 655.194 511.63 666.014C510.798 671.435 510.231 676.901 509.887 682.382C509.717 685.125 509.606 687.871 509.551 690.617L509.522 694.736L509.549 696.791C509.567 697.474 509.535 698.172 509.871 698.82C510.189 699.434 509.95 700.19 509.336 700.508C508.722 700.826 507.966 700.587 507.648 699.973C507.483 699.652 507.467 699.295 507.577 698.98L507.588 698.957Z" fill="white"/>
<path d="M391.955 8.34785C358.614 8.08272 324.981 13.3723 295.226 25.7181C225.957 54.4576 167.174 130.504 190.177 208.18C197.651 233.413 193.724 261.252 218.862 272.217C232.462 278.149 269.502 281.683 283.586 277.005C321.017 264.578 345.619 230.567 325.262 192.847C318.744 180.769 310.304 169.736 304.676 157.217C299.045 144.698 296.48 129.84 302.219 117.37C313.486 92.8968 350.912 85.116 375.181 85.8484C403.828 86.7147 429.785 100.885 445.2 125.191C464.413 155.484 469.28 192.327 466.465 227.493C463.457 265.118 447.594 293.85 423.818 322.716C403.348 347.565 380.806 371.419 367.203 400.599C354.713 427.388 350.631 457.07 350.066 486.377C349.956 492.058 321.707 545.588 321.828 561.943C321.847 564.253 353.867 571.905 356.18 571.931C368.235 572.068 402.384 572.448 414.953 572.59C417.536 572.619 419.668 570.553 419.697 567.967C420.592 488.403 445.066 412.546 507.018 359.11C529.56 339.666 553.836 323.831 571.364 299.289C596.347 264.31 608.674 229.887 605.117 186.718C601.868 147.289 588.884 107.839 563.184 77.2486C535.563 44.3693 495.134 23.8359 453.114 14.9762C433.521 10.8443 412.795 8.51061 391.955 8.34785Z" fill="url(#paint1_linear_101_766)"/>
<path d="M453.442 661.783C453.442 698.369 433.164 730.739 396.575 730.739C388.674 730.739 361.79 730.812 354.763 728.274C329.257 719.06 329.165 699.463 329.165 670.782C329.165 634.193 341.519 598.211 378.108 598.211C414.693 598.211 453.442 625.194 453.442 661.783Z" fill="url(#paint2_linear_101_766)"/>
<path d="M360.273 0.0104477C326.931 -0.254686 293.299 5.03487 263.543 17.3807C194.275 46.1202 135.491 122.166 158.495 199.843C165.969 225.075 183.247 256.839 208.385 267.804C221.985 273.737 237.82 273.343 251.904 268.667C289.335 256.24 313.937 222.227 293.58 184.51C287.061 172.432 278.622 161.398 272.994 148.879C267.363 136.36 264.798 121.502 270.536 109.033C281.803 84.5568 319.229 76.776 343.498 77.511C372.146 78.3773 398.103 92.5475 413.517 116.853C432.73 147.144 437.597 183.99 434.786 219.153C431.775 256.781 415.911 285.513 392.136 314.378C371.665 339.227 349.124 363.082 335.521 392.262C323.03 419.051 318.948 448.733 318.384 478.039C318.274 483.72 320.187 543.037 320.308 559.391C320.327 561.701 322.185 563.568 324.498 563.594C336.552 563.73 370.702 564.111 383.271 564.253C385.854 564.279 387.986 562.216 388.015 559.63C388.91 480.063 413.383 404.209 475.335 350.772C497.877 331.328 522.154 315.494 539.682 290.952C564.665 255.973 576.992 221.55 573.435 178.377C570.185 138.951 557.202 99.5014 531.502 68.9112C503.881 36.0319 463.452 15.4985 421.432 6.6388C401.838 2.50691 381.113 0.173203 360.273 0.0104477Z" fill="url(#paint3_linear_101_766)"/>
<path d="M429.977 662.442C429.977 699.03 400.318 728.691 363.73 728.691C327.141 728.691 297.483 699.03 297.483 662.442C297.483 625.856 327.141 596.195 363.73 596.195C400.318 596.195 429.977 625.856 429.977 662.442Z" fill="url(#paint4_linear_101_766)"/>
<path opacity="0.631" d="M180.422 192.233C180.034 192.233 179.682 191.962 179.596 191.566C174.952 170.605 174.269 137.778 197.388 100.436C219.951 63.9866 251.602 39.5995 291.459 27.9494C334.066 15.4959 384.652 18.1604 441.813 35.8719C442.262 36.011 442.514 36.4888 442.375 36.9377C442.236 37.384 441.755 37.636 441.312 37.4968C331.491 3.46777 245.38 26.1381 198.832 101.331C176.018 138.187 176.679 170.544 181.255 191.199C181.357 191.658 181.066 192.112 180.609 192.212C180.546 192.228 180.485 192.233 180.422 192.233Z" fill="white"/>
<path opacity="0.631" d="M194.359 225.96C194.097 225.96 193.839 225.839 193.671 225.611C193.472 225.338 188.697 218.741 184.258 207.122C184.09 206.684 184.31 206.193 184.749 206.025C185.184 205.86 185.678 206.078 185.846 206.516C190.198 217.904 194.997 224.542 195.044 224.608C195.322 224.989 195.238 225.519 194.86 225.797C194.708 225.907 194.532 225.96 194.359 225.96Z" fill="white"/>
<path opacity="0.631" d="M385.896 619.506C385.767 619.506 385.636 619.477 385.513 619.414C378.724 615.97 371.395 614.224 363.73 614.224C363.26 614.224 362.879 613.843 362.879 613.373C362.879 612.904 363.26 612.523 363.73 612.523C371.665 612.523 379.252 614.332 386.282 617.897C386.702 618.109 386.867 618.621 386.655 619.041C386.505 619.335 386.206 619.506 385.896 619.506Z" fill="white"/>
<path opacity="0.631" d="M336.295 703.981C336.13 703.981 335.964 703.933 335.82 703.836C322.038 694.525 313.811 679.05 313.811 662.441C313.811 644.029 323.897 627.171 340.128 618.445C340.542 618.222 341.057 618.377 341.28 618.791C341.503 619.203 341.348 619.721 340.934 619.941C325.251 628.37 315.51 644.656 315.51 662.441C315.51 678.486 323.458 693.433 336.77 702.427C337.159 702.689 337.264 703.219 336.999 703.608C336.836 703.849 336.568 703.981 336.295 703.981Z" fill="white"/>
<g opacity="0.302">
<path opacity="0.302" d="M143.359 123.938C142.661 124.799 141.398 124.933 140.537 124.235C138.867 122.883 137.111 121.581 135.321 120.368C134.415 119.754 134.168 118.531 134.764 117.617C134.77 117.607 134.778 117.596 134.785 117.583C135.405 116.667 136.652 116.428 137.568 117.05C139.453 118.326 141.301 119.696 143.062 121.122C143.866 121.773 144.034 122.92 143.482 123.768C143.443 123.828 143.404 123.883 143.359 123.938ZM126.201 115.063C124.261 114.107 122.264 113.225 120.261 112.441C119.232 112.036 118.722 110.873 119.127 109.842C119.536 108.807 120.694 108.303 121.726 108.708C123.834 109.532 125.936 110.461 127.976 111.469C128.968 111.958 129.375 113.16 128.884 114.155C128.85 114.226 128.811 114.294 128.766 114.36C128.22 115.2 127.12 115.52 126.201 115.063ZM110.201 109.283C108.104 108.784 105.959 108.369 103.828 108.051C102.733 107.889 101.977 106.867 102.14 105.773C102.305 104.678 103.324 103.922 104.418 104.085C106.665 104.421 108.923 104.857 111.131 105.384C112.207 105.642 112.871 106.72 112.616 107.799C112.561 108.028 112.469 108.24 112.346 108.427C111.897 109.117 111.047 109.485 110.201 109.283ZM93.309 107.227C91.1511 107.209 88.9671 107.282 86.8171 107.448C85.7146 107.534 84.7485 106.707 84.6645 105.605C84.5805 104.5 85.4074 103.536 86.51 103.45C88.7728 103.276 91.0724 103.198 93.3431 103.216C94.4509 103.226 95.3408 104.132 95.3303 105.24C95.3276 105.634 95.2095 106.004 95.0074 106.314C94.6478 106.867 94.0204 107.232 93.309 107.227ZM76.3797 108.983C74.277 109.445 72.1638 109.999 70.1005 110.64C69.0426 110.965 67.9191 110.372 67.5909 109.314C67.2654 108.256 67.8587 107.135 68.9166 106.807C71.0876 106.138 73.311 105.552 75.524 105.067C76.6055 104.83 77.6739 105.516 77.9102 106.597C78.0309 107.143 77.9154 107.684 77.6345 108.117C77.3563 108.545 76.9179 108.868 76.3797 108.983ZM60.2643 114.443C58.3112 115.357 56.3739 116.368 54.5049 117.447C53.5467 117.998 52.3208 117.67 51.7669 116.712C51.213 115.751 51.5411 114.528 52.5019 113.974C54.4681 112.84 56.5078 111.776 58.5632 110.813C59.566 110.343 60.7578 110.774 61.2277 111.776C61.5322 112.427 61.4587 113.16 61.0938 113.722C60.897 114.026 60.6161 114.278 60.2643 114.443ZM15.0786 173.61C13.984 173.445 13.2306 172.424 13.3959 171.329C13.7346 169.087 14.1756 166.827 14.7085 164.617C14.9657 163.541 16.0499 162.876 17.1262 163.136C18.2025 163.396 18.864 164.478 18.6067 165.554C18.1001 167.654 17.6827 169.799 17.3624 171.928C17.3178 172.219 17.2128 172.487 17.0606 172.721C16.6458 173.358 15.8819 173.731 15.0786 173.61ZM45.7659 123.335C44.0675 124.66 42.4032 126.075 40.8255 127.543C40.0144 128.293 38.7464 128.249 37.993 127.438C37.237 126.624 37.2895 125.361 38.098 124.603C39.7597 123.059 41.5107 121.568 43.301 120.171C44.1725 119.492 45.4325 119.646 46.1124 120.521C46.6532 121.214 46.6663 122.148 46.2148 122.846C46.0967 123.028 45.9471 123.193 45.7659 123.335ZM19.1816 156.626C18.1526 156.219 17.646 155.056 18.0528 154.025C18.885 151.917 19.8169 149.814 20.8276 147.777C21.3158 146.782 22.5234 146.38 23.513 146.874C24.5053 147.365 24.9122 148.567 24.4187 149.559C23.4605 151.494 22.5733 153.492 21.7831 155.497C21.7306 155.626 21.6676 155.744 21.5967 155.854C21.0875 156.639 20.082 156.98 19.1816 156.626ZM33.6196 135.239C32.2625 136.912 30.9578 138.663 29.7424 140.448C29.1202 141.364 27.8733 141.6 26.9572 140.978C26.0541 140.364 25.8126 139.14 26.4033 138.229C26.4111 138.216 26.419 138.203 26.4295 138.193C27.7053 136.313 29.0782 134.47 30.5089 132.709C31.2072 131.85 32.4698 131.722 33.3309 132.42C34.1315 133.071 34.2995 134.216 33.7483 135.066C33.7089 135.124 33.6669 135.182 33.6196 135.239Z" fill="#91B3FA"/>
<path opacity="0.302" d="M16.2283 186.772C16.4436 186.442 16.5644 186.045 16.5512 185.62C16.5171 184.586 16.5066 183.536 16.5145 182.496C16.525 181.388 15.6377 180.483 14.5299 180.472C13.4221 180.462 12.5165 181.352 12.506 182.459C12.4955 183.551 12.5086 184.657 12.5427 185.746C12.5768 186.851 13.5035 187.72 14.6087 187.686C15.2912 187.665 15.8818 187.305 16.2283 186.772Z" fill="#91B3FA"/>
</g>
<g opacity="0.302">
<path opacity="0.302" d="M41.8518 242.265C42.3768 241.454 42.2535 240.356 41.5132 239.687C40.7467 238.994 39.9801 238.275 39.2399 237.545C38.4497 236.77 37.1792 236.781 36.4048 237.571C35.6251 238.364 35.6409 239.629 36.431 240.406C37.2107 241.173 38.0166 241.931 38.8251 242.661C39.6441 243.404 40.912 243.341 41.6549 242.519C41.7284 242.438 41.7941 242.354 41.8518 242.265Z" fill="#91B3FA"/>
<path opacity="0.302" d="M157.461 230.258C156.812 231.155 155.56 231.358 154.66 230.709C153.765 230.061 153.563 228.809 154.208 227.911C155.442 226.202 156.623 224.412 157.731 222.574C158.298 221.629 159.535 221.322 160.485 221.894C161.433 222.466 161.737 223.698 161.165 224.645C160.684 225.443 160.194 226.228 159.692 227C158.976 228.105 158.225 229.2 157.461 230.258ZM163.525 215.977C162.509 215.539 162.039 214.357 162.477 213.342C163.32 211.391 164.087 209.38 164.761 207.372C165.108 206.322 166.247 205.755 167.297 206.107C168.347 206.459 168.914 207.595 168.562 208.645C167.854 210.761 167.045 212.874 166.16 214.93C166.113 215.035 166.061 215.137 165.998 215.229C165.475 216.035 164.436 216.368 163.525 215.977ZM150.475 238.655C148.935 240.27 147.304 241.84 145.627 243.32C144.797 244.052 143.529 243.976 142.797 243.147C142.065 242.317 142.143 241.049 142.97 240.317C144.564 238.91 146.113 237.419 147.575 235.888C148.339 235.088 149.609 235.056 150.41 235.823C151.119 236.497 151.221 237.568 150.706 238.361C150.641 238.466 150.562 238.563 150.475 238.655ZM168.972 199.667C167.882 199.463 167.166 198.415 167.371 197.329C167.762 195.242 168.069 193.115 168.284 191.005C168.394 189.902 169.379 189.099 170.481 189.212C171.581 189.325 172.384 190.306 172.272 191.409C172.046 193.63 171.723 195.872 171.311 198.066C171.261 198.331 171.161 198.575 171.025 198.791C170.594 199.45 169.794 199.822 168.972 199.667ZM136.969 249.969C135.113 251.206 133.179 252.377 131.218 253.453C130.247 253.986 129.028 253.631 128.496 252.663C127.963 251.691 128.317 250.473 129.288 249.941C131.15 248.917 132.987 247.804 134.751 246.63C135.673 246.019 136.917 246.268 137.531 247.192C137.988 247.88 137.964 248.743 137.542 249.394C137.397 249.618 137.206 249.815 136.969 249.969ZM121.311 258.049C119.226 258.85 117.082 259.572 114.94 260.194C113.874 260.501 112.763 259.892 112.454 258.829C112.144 257.763 112.756 256.65 113.819 256.343C115.856 255.752 117.893 255.065 119.875 254.306C120.909 253.91 122.069 254.427 122.466 255.458C122.705 256.083 122.613 256.753 122.274 257.27C122.051 257.614 121.723 257.892 121.311 258.049ZM104.263 262.523C102.053 262.851 99.8007 263.087 97.5746 263.229C96.4695 263.3 95.5192 262.46 95.4483 261.354C95.3774 260.249 96.2175 259.296 97.3226 259.228C99.4385 259.094 101.575 258.868 103.678 258.556C104.773 258.396 105.791 259.152 105.954 260.247C106.027 260.751 105.909 261.236 105.652 261.633C105.35 262.097 104.857 262.436 104.263 262.523ZM86.6464 263.171C84.4177 263.008 82.168 262.746 79.9629 262.394C78.8709 262.221 78.1253 261.192 78.2986 260.1C78.4745 259.008 79.5009 258.259 80.5956 258.435C82.6877 258.769 84.8246 259.018 86.943 259.173C88.0456 259.254 88.8751 260.215 88.7937 261.32C88.7675 261.669 88.6546 261.99 88.4761 262.263C88.0902 262.856 87.4024 263.229 86.6464 263.171ZM69.3077 259.932C67.1761 259.283 65.0419 258.532 62.9654 257.703C61.9364 257.291 61.435 256.125 61.8472 255.096C62.2567 254.072 63.4248 253.568 64.4539 253.978C66.4253 254.768 68.4519 255.479 70.4785 256.096C71.5364 256.419 72.1349 257.54 71.812 258.598C71.7542 258.784 71.6755 258.955 71.5757 259.107C71.1006 259.84 70.1844 260.199 69.3077 259.932ZM53.1214 252.972C51.6907 252.161 50.2679 251.298 48.8923 250.403C48.3936 250.08 47.9027 249.752 47.4118 249.418C46.4982 248.796 46.2357 247.549 46.8841 246.633C47.5089 245.719 48.7558 245.483 49.672 246.105C50.134 246.42 50.6039 246.735 51.0764 247.042C52.3863 247.893 53.7382 248.712 55.098 249.484C56.0615 250.03 56.4001 251.253 55.8541 252.216C55.8331 252.251 55.8121 252.287 55.7884 252.321C55.2162 253.204 54.048 253.498 53.1214 252.972Z" fill="#91B3FA"/>
<path opacity="0.302" d="M172.3 181.599C172.518 181.263 172.639 180.861 172.623 180.433C172.584 179.349 172.521 178.246 172.437 177.152C172.35 176.047 171.387 175.222 170.282 175.309C169.179 175.396 168.352 176.359 168.439 177.462C168.52 178.501 168.578 179.551 168.617 180.58C168.657 181.685 169.586 182.552 170.694 182.51C171.371 182.486 171.959 182.126 172.3 181.599Z" fill="#91B3FA"/>
</g>
<path d="M147.155 158.17C147.034 157.789 146.682 157.527 146.283 157.519L134.882 157.267C132.144 152.699 128.656 148.536 124.484 144.984L126.109 133.704C126.167 133.308 125.968 132.919 125.613 132.735L113.448 126.477C113.094 126.293 112.661 126.356 112.372 126.632L104.137 134.512C98.8215 133.182 93.4059 132.764 88.098 133.189L81.2675 124.057C81.0286 123.736 80.6112 123.605 80.2306 123.726L67.2049 127.9C66.8243 128.023 66.5618 128.372 66.5539 128.771L66.3045 140.172C61.7368 142.913 57.5735 146.399 54.0191 150.573L42.7391 148.945C42.3427 148.887 41.9542 149.087 41.773 149.444L35.5122 161.606C35.3284 161.963 35.3914 162.394 35.6671 162.682L43.5476 170.917C42.2167 176.233 41.7993 181.649 42.2246 186.957L33.0919 193.787C32.7742 194.026 32.6404 194.443 32.7611 194.824L36.935 207.85C37.0584 208.23 37.4075 208.493 37.8065 208.501L49.2099 208.753C51.9479 213.32 55.434 217.484 59.6079 221.035L57.9803 232.315C57.9226 232.712 58.1247 233.1 58.4791 233.284L70.6412 239.542C70.9982 239.726 71.4313 239.663 71.7201 239.387L79.9524 231.507C85.2708 232.838 90.6837 233.255 95.9943 232.83L102.825 241.963C103.064 242.283 103.478 242.417 103.859 242.293L116.887 238.12C117.268 237.999 117.528 237.647 117.538 237.248L117.788 225.847C122.355 223.107 126.519 219.621 130.073 215.447L141.353 217.074C141.747 217.132 142.135 216.932 142.319 216.575L148.58 204.413C148.761 204.059 148.698 203.626 148.423 203.337L140.542 195.102C141.873 189.786 142.29 184.371 141.865 179.063L150.998 172.232C151.318 171.993 151.452 171.576 151.329 171.195L147.155 158.17Z" fill="#91B3FA"/>
<path fill-rule="evenodd" clip-rule="evenodd" d="M102.36 192.104C97.3462 197.79 88.6388 198.339 82.9529 193.322C80.1965 190.894 78.5532 187.539 78.3222 183.872C78.0912 180.207 79.3014 176.671 81.7322 173.918C86.7461 168.229 95.4509 167.683 101.14 172.697C106.314 177.257 107.232 184.875 103.581 190.495C103.219 191.052 102.812 191.59 102.36 192.104ZM81.5248 183.672C81.7007 186.481 82.9607 189.054 85.0739 190.918C89.4342 194.761 96.1098 194.343 99.953 189.983C103.801 185.62 103.379 178.947 99.0184 175.102C94.6582 171.258 87.9825 171.678 84.1368 176.039C83.7903 176.433 83.4753 176.85 83.1917 177.283C81.9685 179.168 81.3804 181.386 81.5248 183.672Z" fill="#BDD0FB"/>
<path d="M120.079 201.552C120.707 200.586 121.29 199.586 121.825 198.547C121.993 198.221 122.156 197.89 122.313 197.559C123.09 195.924 123.734 194.228 124.238 192.498C124.245 192.475 124.253 192.451 124.259 192.427C124.28 192.362 124.298 192.294 124.316 192.228C124.353 192.097 124.39 191.965 124.424 191.834C124.516 191.49 124.371 191.138 124.088 190.955C124.02 190.91 123.941 190.876 123.857 190.852C123.432 190.737 122.991 190.991 122.875 191.419C122.285 193.619 121.45 195.769 120.397 197.814C115.176 207.96 105.277 214.161 94.6765 215.14C88.7805 215.686 82.6693 214.615 77.0254 211.711C76.0357 211.202 75.0775 210.646 74.1588 210.047C67.9609 206.02 63.3775 200.035 61.0937 192.903C58.4686 184.712 59.1905 175.986 63.1255 168.337C71.258 152.542 90.71 146.315 106.5 154.44C107.474 154.941 108.419 155.49 109.33 156.083C113.28 158.653 116.627 162.058 119.116 166.066C119.179 166.169 119.263 166.253 119.36 166.316C119.612 166.478 119.946 166.494 120.219 166.323C120.594 166.09 120.712 165.596 120.478 165.218C117.867 161.01 114.354 157.435 110.204 154.739C109.248 154.117 108.256 153.539 107.235 153.014C90.6575 144.483 70.229 151.032 61.7001 167.605C57.5682 175.635 56.8095 184.791 59.5659 193.393C61.9652 200.88 66.777 207.162 73.282 211.391C74.248 212.018 75.2508 212.601 76.2903 213.137C84.3205 217.269 93.4794 218.027 102.079 215.274C109.569 212.874 115.853 208.06 120.079 201.552Z" fill="#BDD0FB"/>
<g opacity="0.302">
<path opacity="0.302" d="M225.059 95.1907C225.351 94.7418 225.327 94.1381 224.962 93.7102C224.277 92.9121 223.558 92.1246 222.828 91.3686C222.353 90.8777 221.568 90.8646 221.077 91.3397C220.581 91.8122 220.573 92.5997 221.048 93.0906C221.744 93.8099 222.429 94.5607 223.083 95.322C223.526 95.8417 224.309 95.9021 224.828 95.4559C224.92 95.3771 224.996 95.2878 225.059 95.1907Z" fill="#91B3FA"/>
<path opacity="0.302" d="M218.148 88.6649C217.717 89.1952 216.937 89.2818 216.405 88.8513C215.06 87.7698 213.646 86.7433 212.199 85.8036C211.895 85.6041 211.585 85.4098 211.272 85.2155C210.692 84.8559 210.514 84.092 210.873 83.5119C211.236 82.9763 211.997 82.7532 212.58 83.1128C212.905 83.315 213.228 83.5197 213.548 83.7271C215.066 84.7115 216.549 85.7878 217.959 86.9245C218.457 87.3235 218.562 88.0349 218.221 88.5599C218.197 88.5967 218.174 88.6308 218.148 88.6649ZM205.739 82.2334C203.838 81.354 201.869 80.5849 199.882 79.947C199.229 79.7396 198.872 79.0413 199.082 78.3903C199.289 77.7419 199.987 77.3797 200.638 77.5897C202.72 78.2564 204.786 79.0623 206.778 79.9864C207.398 80.2725 207.668 81.0075 207.382 81.6297C207.356 81.6848 207.327 81.7373 207.295 81.7845C206.965 82.2938 206.303 82.4933 205.739 82.2334ZM193.784 78.4034C191.731 78.0176 189.631 77.7577 187.544 77.629C186.862 77.587 186.342 76.999 186.384 76.3165C186.429 75.6313 187.014 75.1142 187.697 75.1562C189.886 75.2901 192.088 75.5657 194.241 75.97C194.913 76.096 195.357 76.7444 195.231 77.4164C195.199 77.5792 195.139 77.7288 195.052 77.86C194.787 78.2696 194.293 78.4979 193.784 78.4034ZM181.255 77.629C179.168 77.7603 177.068 78.0202 175.017 78.4034C174.345 78.5294 173.697 78.0884 173.571 77.4164C173.448 76.7444 173.889 76.096 174.561 75.97C176.711 75.5657 178.913 75.2927 181.102 75.1588C181.785 75.1142 182.373 75.634 182.415 76.3165C182.431 76.5921 182.357 76.852 182.218 77.0673C182.011 77.3849 181.664 77.6054 181.255 77.629ZM168.917 79.9365C166.924 80.5691 164.953 81.333 163.055 82.2046C162.433 82.4881 161.698 82.2151 161.412 81.5929C161.128 80.9734 161.398 80.2358 162.021 79.9522C164.01 79.0387 166.079 78.2407 168.169 77.5765C168.82 77.3691 169.515 77.7288 169.723 78.3798C169.838 78.7499 169.775 79.1306 169.581 79.4325C169.429 79.6635 169.2 79.8472 168.917 79.9365ZM157.513 85.1709C155.736 86.2682 154.011 87.4863 152.384 88.7962C151.854 89.2241 151.071 89.1401 150.643 88.6072C150.216 88.0743 150.3 87.2972 150.832 86.8641C152.536 85.4938 154.347 84.2154 156.211 83.063C156.794 82.7033 157.558 82.8845 157.915 83.4646C158.175 83.8873 158.154 84.4018 157.902 84.7903C157.805 84.9399 157.673 85.0712 157.513 85.1709ZM147.74 93.0304C146.291 94.5241 144.915 96.1333 143.653 97.8081C143.241 98.3515 142.466 98.4618 141.92 98.0496C141.374 97.6401 141.272 96.8683 141.676 96.3144C142.999 94.5609 144.44 92.8756 145.96 91.3058C146.435 90.8149 147.22 90.8017 147.711 91.2795C148.144 91.6969 148.205 92.3558 147.89 92.8414C147.845 92.9071 147.795 92.9701 147.74 93.0304ZM135.762 109.34C135.132 109.072 134.838 108.348 135.103 107.718C135.843 105.975 136.688 104.242 137.615 102.57C137.757 102.315 137.899 102.066 138.043 101.814C138.366 101.215 139.143 101.019 139.736 101.362C140.327 101.706 140.529 102.462 140.188 103.056C140.051 103.289 139.917 103.526 139.783 103.77C138.896 105.368 138.088 107.02 137.384 108.684C137.355 108.752 137.321 108.815 137.282 108.875C136.961 109.369 136.324 109.576 135.762 109.34Z" fill="#91B3FA"/>
</g>
<g opacity="0.302">
<path opacity="0.302" d="M228.798 158.306C227.598 160.101 226.28 161.837 224.878 163.467C224.432 163.984 223.65 164.044 223.13 163.598C222.61 163.152 222.56 162.372 222.999 161.852C224.338 160.298 225.595 158.642 226.74 156.93C227.12 156.361 227.889 156.208 228.456 156.589C229.021 156.964 229.176 157.726 228.808 158.293C228.805 158.295 228.8 158.301 228.798 158.306ZM230.407 153.25C229.798 152.943 229.554 152.197 229.863 151.588C230.793 149.753 231.622 147.842 232.326 145.91C232.559 145.272 233.268 144.936 233.914 145.172C234.554 145.406 234.885 146.115 234.652 146.758C233.914 148.782 233.048 150.785 232.071 152.706C232.05 152.748 232.029 152.785 232.005 152.822C231.664 153.347 230.979 153.541 230.407 153.25ZM220.355 168.118C218.757 169.57 217.056 170.935 215.299 172.179C214.743 172.573 213.968 172.442 213.575 171.885C213.178 171.326 213.31 170.557 213.869 170.158C215.544 168.972 217.163 167.669 218.691 166.283C219.198 165.824 219.98 165.863 220.439 166.367C220.825 166.793 220.859 167.415 220.56 167.874C220.505 167.963 220.434 168.045 220.355 168.118ZM235.009 141.466C234.342 141.311 233.927 140.647 234.079 139.98C234.541 137.977 234.885 135.924 235.098 133.879C235.171 133.199 235.78 132.706 236.458 132.777C237.138 132.848 237.634 133.457 237.56 134.137C237.337 136.281 236.977 138.434 236.494 140.537C236.46 140.681 236.402 140.815 236.324 140.933C236.051 141.358 235.528 141.584 235.009 141.466ZM209.795 175.595C207.897 176.618 205.917 177.535 203.912 178.322C203.274 178.571 202.557 178.256 202.308 177.619C202.056 176.983 202.371 176.264 203.009 176.015C204.922 175.264 206.81 174.39 208.619 173.413C209.22 173.09 209.97 173.313 210.296 173.917C210.516 174.329 210.482 174.812 210.243 175.18C210.133 175.348 209.981 175.492 209.795 175.595ZM197.745 180.32C195.656 180.861 193.514 181.278 191.38 181.561C190.702 181.653 190.08 181.176 189.991 180.498C189.899 179.821 190.377 179.199 191.054 179.107C193.089 178.837 195.131 178.438 197.126 177.923C197.787 177.752 198.462 178.149 198.635 178.813C198.725 179.162 198.656 179.517 198.473 179.797C198.31 180.047 198.058 180.241 197.745 180.32ZM184.911 182.026C182.751 182.05 180.569 181.942 178.433 181.703C177.753 181.627 177.262 181.015 177.338 180.336C177.414 179.656 178.026 179.167 178.706 179.244C180.745 179.469 182.824 179.574 184.882 179.548C185.568 179.543 186.127 180.089 186.135 180.774C186.137 181.029 186.064 181.265 185.935 181.462C185.717 181.798 185.342 182.021 184.911 182.026Z" fill="#91B3FA"/>
<path opacity="0.302" d="M237.644 128.296C237.773 128.094 237.846 127.855 237.841 127.598C237.823 126.54 237.77 125.474 237.691 124.437C237.636 123.754 237.043 123.245 236.361 123.298C235.681 123.353 235.169 123.946 235.221 124.629C235.3 125.618 235.347 126.634 235.366 127.645C235.379 128.327 235.943 128.873 236.628 128.86C237.054 128.85 237.426 128.629 237.644 128.296Z" fill="#91B3FA"/>
</g>
<path d="M220.878 111.726C220.794 111.471 220.56 111.296 220.292 111.29L212.664 111.122C210.831 108.064 208.498 105.279 205.705 102.9L206.794 95.3533C206.833 95.0882 206.7 94.8283 206.461 94.7049L198.323 90.5179C198.084 90.3945 197.795 90.4365 197.601 90.6229L192.091 95.8941C188.534 95.0042 184.911 94.7259 181.357 95.0095L176.787 88.8982C176.627 88.6856 176.348 88.5964 176.094 88.6777L167.378 91.4708C167.124 91.5522 166.948 91.7858 166.943 92.0536L166.775 99.6821C163.719 101.514 160.931 103.848 158.553 106.641L151.006 105.552C150.741 105.515 150.481 105.649 150.36 105.885L146.17 114.026C146.047 114.262 146.089 114.553 146.275 114.745L151.546 120.255C150.657 123.812 150.378 127.437 150.662 130.989L144.551 135.559C144.338 135.719 144.249 135.998 144.33 136.252L147.123 144.97C147.205 145.225 147.438 145.398 147.706 145.406L155.334 145.571C157.169 148.63 159.5 151.415 162.294 153.793L161.204 161.34C161.167 161.605 161.301 161.865 161.538 161.989L169.678 166.176C169.914 166.299 170.206 166.257 170.397 166.073L175.907 160.799C179.464 161.689 183.09 161.97 186.641 161.684L191.212 167.795C191.372 168.011 191.65 168.1 191.905 168.016L200.623 165.223C200.877 165.141 201.05 164.908 201.058 164.64L201.226 157.011C204.282 155.179 207.067 152.845 209.445 150.052L216.993 151.142C217.258 151.181 217.518 151.047 217.641 150.808L221.828 142.668C221.951 142.432 221.909 142.143 221.726 141.949L216.452 136.439C217.342 132.882 217.623 129.259 217.336 125.705L223.448 121.134C223.663 120.974 223.752 120.696 223.671 120.441L220.878 111.726Z" fill="#91B3FA"/>
<path fill-rule="evenodd" clip-rule="evenodd" d="M191.025 134.541C189.371 136.418 187.085 137.538 184.588 137.696C182.092 137.853 179.682 137.027 177.805 135.373C173.933 131.958 173.56 126.038 176.973 122.153C180.391 118.278 186.321 117.905 190.193 121.321C192.07 122.974 193.191 125.261 193.348 127.76C193.474 129.789 192.955 131.761 191.865 133.435C191.616 133.819 191.335 134.189 191.025 134.541ZM179.443 133.514C180.824 134.732 182.596 135.339 184.434 135.223C186.269 135.108 187.951 134.283 189.167 132.903C190.382 131.522 190.991 129.752 190.876 127.915C190.76 126.077 189.936 124.397 188.555 123.179C185.707 120.667 181.344 120.94 178.832 123.791C178.606 124.048 178.401 124.316 178.22 124.597C176.39 127.411 176.85 131.23 179.443 133.514Z" fill="#BDD0FB"/>
<path d="M203.361 141.117C203.786 140.46 204.182 139.775 204.55 139.064C205.277 137.654 205.862 136.166 206.287 134.64C206.306 134.572 206.324 134.504 206.343 134.436C206.487 133.903 206.261 133.359 205.823 133.076C205.718 133.005 205.597 132.953 205.468 132.918C204.81 132.74 204.132 133.134 203.951 133.79C203.568 135.218 203.027 136.612 202.347 137.93C202.31 138.003 202.271 138.077 202.234 138.148C200.596 141.256 198.247 143.836 195.401 145.734C193.855 146.763 192.159 147.59 190.351 148.189C190.337 148.191 190.322 148.196 190.306 148.202C190.261 148.217 190.217 148.231 190.172 148.246C184.869 149.945 179.22 149.477 174.269 146.928C173.629 146.6 173.009 146.241 172.413 145.852C168.402 143.245 165.436 139.371 163.955 134.753C162.257 129.448 162.724 123.801 165.273 118.851C167.822 113.905 172.146 110.238 177.448 108.537C182.751 106.838 188.4 107.305 193.351 109.854C193.981 110.177 194.593 110.532 195.183 110.915C197.74 112.579 199.909 114.784 201.518 117.378C201.617 117.538 201.746 117.669 201.896 117.764C202.284 118.016 202.801 118.039 203.221 117.777C203.802 117.415 203.983 116.653 203.62 116.073C201.82 113.17 199.397 110.702 196.535 108.841C195.874 108.411 195.189 108.014 194.485 107.652C188.943 104.801 182.625 104.276 176.692 106.179C170.759 108.08 165.919 112.172 163.071 117.716C160.22 123.258 159.695 129.574 161.598 135.509C163.252 140.673 166.572 145.01 171.059 147.926C171.726 148.359 172.419 148.761 173.135 149.131C183.861 154.649 196.924 151.021 203.361 141.117Z" fill="#BDD0FB"/>
<path d="M475.837 225.175L439.829 262.007L483.022 250.47L475.837 225.175Z" fill="#91B3FA"/>
<path d="M690.097 240.422L485.492 250.35C480.237 250.604 475.837 246.415 475.837 241.154V156.978C475.837 147.829 483.103 140.335 492.249 140.051L676.651 134.344C690.383 134.344 701.516 145.477 701.516 159.209V228.435C701.516 234.835 696.492 240.109 690.097 240.422Z" fill="#91B3FA"/>
<path opacity="0.851" fill-rule="evenodd" clip-rule="evenodd" d="M491.611 246.971C488.351 246.971 485.277 245.74 482.898 243.474C480.373 241.062 478.982 237.812 478.982 234.318V158.453C478.982 149.512 486.148 142.293 495.299 142.014L673.842 136.623C687.375 136.623 698.374 147.362 698.374 160.561V225.968C698.374 232.262 693.331 237.431 686.894 237.736L492.228 246.955C492.023 246.966 491.816 246.971 491.611 246.971ZM673.855 137.51L495.326 142.902C486.658 143.164 479.866 149.995 479.866 158.453V234.318C479.866 237.565 481.161 240.589 483.513 242.831C485.862 245.073 488.941 246.228 492.189 246.068L686.852 236.849C692.816 236.568 697.486 231.787 697.486 225.968V160.561C697.486 147.85 686.886 137.51 673.855 137.51Z" fill="white"/>
<path d="M673.26 152.859L509.653 158.981C508.047 159.041 506.782 160.107 506.837 161.354L506.897 162.793C506.95 164.026 508.275 164.974 509.863 164.916L673.475 158.941C675.084 158.884 676.349 157.818 676.297 156.568L676.228 154.983C676.176 153.746 674.85 152.799 673.26 152.859Z" fill="url(#paint5_linear_101_766)"/>
<path d="M658.617 194.278L495.011 200.368C493.404 200.429 492.141 201.531 492.196 202.823L492.262 204.311C492.315 205.589 493.643 206.574 495.231 206.516L658.845 200.578C660.452 200.52 661.717 199.421 661.662 198.126L661.591 196.483C661.536 195.202 660.208 194.218 658.617 194.278Z" fill="url(#paint6_linear_101_766)"/>
<path d="M677.733 211.603L495.347 218.489C493.556 218.557 492.141 219.675 492.199 220.98L492.262 222.484C492.317 223.776 493.793 224.763 495.565 224.697L677.956 217.966C679.749 217.901 681.164 216.782 681.109 215.478L681.038 213.819C680.98 212.525 679.505 211.538 677.733 211.603Z" fill="url(#paint7_linear_101_766)"/>
<path d="M583.558 177.278L494.386 179.877C493.512 179.903 492.855 181.105 492.929 182.554L493.01 184.226C493.081 185.662 493.837 186.799 494.704 186.775L583.883 184.35C584.76 184.326 585.416 183.124 585.345 181.672L585.253 179.827C585.183 178.391 584.427 177.252 583.558 177.278Z" fill="url(#paint8_linear_101_766)"/>
<path d="M681.815 174.196L597.528 176.611C596.701 176.634 596.087 177.837 596.158 179.286L596.242 180.958C596.313 182.394 597.032 183.533 597.851 183.509L682.143 181.268C682.972 181.247 683.587 180.044 683.516 178.593L683.424 176.747C683.353 175.311 682.634 174.172 681.815 174.196Z" fill="url(#paint9_linear_101_766)"/>
<path d="M165.168 704.693C164.045 711.059 163.207 717.39 162.656 723.691C162.33 727.384 165.179 730.592 168.885 730.747C181.47 731.272 208.393 732.29 218.053 731.86C219.505 731.794 220.455 730.308 219.917 728.957C219.465 727.825 218.597 726.909 217.491 726.402L173.02 705.963L165.168 704.693Z" fill="url(#paint10_linear_101_766)"/>
<path d="M163.787 699.083L165.142 710.502C170.334 712.92 174.705 712.767 178.251 710.045L175.025 697.319L163.787 699.083Z" fill="url(#paint11_linear_101_766)"/>
<path d="M164.806 484.382C164.22 487.364 161.663 633.203 177.251 698.56C177.506 699.629 176.965 700.726 175.952 701.141C173.56 702.117 168.872 703.532 163.254 703.721C161.516 703.779 159.955 702.65 159.464 700.981C155.009 685.816 133.656 609.84 130.871 537.264C128.795 483.201 128.795 482.279 130.871 534.505L132.696 484.374L164.806 484.382Z" fill="url(#paint12_linear_101_766)"/>
<path d="M114.013 709.672C112.222 712.885 110.461 718.763 108.728 727.3C108.259 729.615 109.876 731.828 112.225 732.059C116.381 732.469 122.778 732.994 127.902 732.957C130.265 732.941 132.11 730.886 131.824 728.539C131.257 723.864 129.488 716.193 124.025 710.216L114.013 709.672Z" fill="url(#paint13_linear_101_766)"/>
<path d="M111.656 694.985L114.821 712.256C116.908 713.807 120.016 714.02 124.143 712.896L122.634 694.313L111.656 694.985Z" fill="url(#paint14_linear_101_766)"/>
<path d="M103.103 488.857C90.3529 565.804 105.867 679.037 111.102 701.201C111.422 702.558 112.517 703.597 113.892 703.823C116.226 704.212 120.072 704.527 123.865 703.427C125.17 703.046 126.088 701.868 126.141 700.51C126.842 682.591 125.579 572.592 137.46 529.121C138.061 526.918 139.408 524.997 141.269 523.674L164.325 507.283L166.095 480.785L103.103 488.857Z" fill="url(#paint15_linear_101_766)"/>
<path d="M184.344 343.057C158.873 342.635 132.081 345.979 103.977 353.088C96.3827 397.394 95.7186 445.097 101.985 496.2C121.704 501.371 142.689 499.788 164.934 491.456C168.21 472.939 177.498 437.621 192.789 385.505C211.459 383.187 226.837 377.8 239.503 370.679C229.842 359.482 225.288 345.233 223.308 336.81C209.8 341.01 196.131 343.252 184.344 343.057Z" fill="url(#paint16_linear_101_766)"/>
<path d="M297.207 286.775C294.706 283.754 291.871 282.958 288.705 284.387C283.082 308.138 253.599 327.396 223.308 336.81C225.288 345.234 229.842 359.483 239.503 370.679C273.015 351.838 292.249 323.871 297.207 286.775Z" fill="url(#paint17_linear_101_766)"/>
<path d="M296.297 287.928C296.69 289.178 292.141 291.078 289.463 285.972C289.372 283.526 287.883 273.041 289.345 271.046C294.538 263.966 302.166 255.991 312.234 247.116C313.935 248.796 314.087 250.46 312.685 252.109L305.358 259.74C306.891 262.509 308.761 264.846 309.635 268.195C310.299 270.731 309.892 273.443 308.611 275.75C307.327 278.068 305.571 281.079 303.912 283.436C301.82 286.408 299.281 287.907 296.297 287.928Z" fill="url(#paint18_linear_101_766)"/>
<path d="M302.153 264.69L295.478 270.35L293.383 275.984L299.334 282.588C300.67 275.136 301.833 270.602 302.822 268.988C304.311 266.57 303.539 265.399 302.153 264.69Z" fill="url(#paint19_linear_101_766)"/>
<path d="M118.633 390.086L103.977 353.088C80.1834 369.256 66.3308 387.587 62.4167 408.084C69.1606 408.58 81.4329 410.336 93.4427 416.4C95.2015 406.721 103.599 397.951 118.633 390.086Z" fill="url(#paint20_linear_101_766)"/>
<path d="M149.822 424.9C123.106 439.997 105.242 441.102 96.2305 428.21C93.4217 424.194 92.7523 420.204 93.4427 416.4C81.4329 410.336 69.1606 408.58 62.4167 408.083C60.6474 417.353 61.5819 427.213 67.029 437.175C82.8189 466.056 112.183 465.258 155.124 434.781L149.822 424.9Z" fill="url(#paint21_linear_101_766)"/>
<path d="M145.005 453.55L166.874 377.178C167.124 376.312 167.861 375.679 168.759 375.574C172.72 375.112 184.203 373.816 197.457 372.695C213.425 371.343 231.969 370.248 243.049 371.18C244.624 371.311 245.577 372.978 244.876 374.396C238.573 387.143 212.656 438.999 199.677 455.986C199.247 456.551 198.58 456.879 197.874 456.871L147.134 456.401C145.656 456.385 144.6 454.97 145.005 453.55Z" fill="#91B3FA"/>
<path d="M199.727 366.072L215.583 363.431C216.426 363.289 217.119 364.098 216.848 364.909L215.281 369.665C215.142 370.08 214.782 370.379 214.349 370.437L199.092 372.477C198.302 372.582 197.654 371.863 197.835 371.088L198.806 366.935C198.911 366.489 199.273 366.148 199.727 366.072Z" fill="#BDD0FB"/>
<path d="M187.854 379.496L189.161 372.692C189.293 372.009 189.854 371.495 190.545 371.424L222.571 368.174C223.647 368.064 224.511 369.053 224.259 370.106L222.222 378.583C222.059 379.262 221.468 379.753 220.773 379.787L189.479 381.363C188.46 381.415 187.662 380.496 187.854 379.496Z" fill="#BDD0FB"/>
<path d="M150.289 435.098C148.26 426.748 147.653 421.091 148.472 418.127C149.701 413.683 152.082 407.971 160.018 409.239C165.307 410.086 171.074 411.625 177.314 413.854C176.999 417.712 174.831 419.02 170.809 417.773L174.55 420.668C174.196 423.758 172.319 424.477 168.922 422.826L172.4 426.664C170.941 429.202 168.964 429.657 166.465 428.029C162.716 425.588 160.918 436.608 150.289 435.098Z" fill="url(#paint22_linear_101_766)"/>
<path d="M145.643 312.037L133.486 347.194C133.284 347.777 133.523 348.423 134.061 348.722C137.376 350.555 149.315 355.849 163.703 346.727C165.202 345.777 166.223 344.228 166.452 342.467L170.389 312.037H145.643Z" fill="url(#paint23_linear_101_766)"/>
<path d="M172.096 279.478C180.995 296.231 184.875 307.991 183.735 314.761C182.024 324.913 165.478 324.183 151.029 315.937L140.933 288.802L172.096 279.478Z" fill="url(#paint24_linear_101_766)"/>
<path d="M151.667 302.613C152.255 302.353 152.471 301.634 152.121 301.095C151.05 299.463 149.045 296.129 148.407 293.21C146.806 292.186 148.843 290.994 154.515 289.637C163.023 287.6 175.71 284.439 178.378 277.197C180.979 270.135 174.146 252.379 163.247 266.528C162.832 267.066 162.021 267.077 161.606 266.539C159.818 264.213 155.122 259.385 148.599 262.312C142.495 265.05 141.807 269.523 141.891 271.778C141.915 272.44 141.324 272.957 140.671 272.831C137.586 272.243 130.181 271.739 126.724 279.333C123.878 285.592 125.729 289.133 127.414 290.865C127.96 291.427 127.721 292.351 126.97 292.58C124.944 293.202 122.324 294.921 122.587 299.673C122.949 306.241 130.294 305.663 132.383 305.364C132.727 305.314 133.071 305.432 133.305 305.687C135.098 307.671 143.175 316.095 151.917 317.111C152.675 317.2 153.261 316.452 153.014 315.73L149.229 304.734C149.053 304.222 149.297 303.663 149.793 303.442L151.667 302.613Z" fill="url(#paint25_linear_101_766)"/>
<path d="M153.19 304.172C146.853 299.825 143.451 299.481 142.989 303.143C142.296 308.635 151.549 311.1 156.133 309.052L153.19 304.172Z" fill="url(#paint26_linear_101_766)"/>
<defs>
<linearGradient id="paint0_linear_101_766" x1="519.201" y1="1142.01" x2="-98.5273" y2="374.833" gradientUnits="userSpaceOnUse">
<stop stop-color="#DAE3FE"/>
<stop offset="1" stop-color="#E9EFFD"/>
</linearGradient>
<linearGradient id="paint1_linear_101_766" x1="1406.04" y1="-278.275" x2="117.949" y2="819.647" gradientUnits="userSpaceOnUse">
<stop stop-color="#E1473D"/>
<stop offset="1" stop-color="#E9605A"/>
</linearGradient>
<linearGradient id="paint2_linear_101_766" x1="1533.4" y1="-206.246" x2="181.313" y2="946.22" gradientUnits="userSpaceOnUse">
<stop stop-color="#E1473D"/>
<stop offset="1" stop-color="#E9605A"/>
</linearGradient>
<linearGradient id="paint3_linear_101_766" x1="-130.933" y1="394.628" x2="987.274" y2="-789.505" gradientUnits="userSpaceOnUse">
<stop stop-color="#FF928E"/>
<stop offset="1" stop-color="#FE7062"/>
</linearGradient>
<linearGradient id="paint4_linear_101_766" x1="554.645" y1="562.056" x2="288.526" y2="856.117" gradientUnits="userSpaceOnUse">
<stop stop-color="#FF928E"/>
<stop offset="1" stop-color="#FE7062"/>
</linearGradient>
<linearGradient id="paint5_linear_101_766" x1="506.886" y1="152.335" x2="676.247" y2="152.335" gradientUnits="userSpaceOnUse">
<stop stop-color="#DAE3FE"/>
<stop offset="1" stop-color="#E9EFFD"/>
</linearGradient>
<linearGradient id="paint6_linear_101_766" x1="492.249" y1="193.754" x2="661.61" y2="193.754" gradientUnits="userSpaceOnUse">
<stop stop-color="#DAE3FE"/>
<stop offset="1" stop-color="#E9EFFD"/>
</linearGradient>
<linearGradient id="paint7_linear_101_766" x1="492.251" y1="211.08" x2="681.055" y2="211.08" gradientUnits="userSpaceOnUse">
<stop stop-color="#DAE3FE"/>
<stop offset="1" stop-color="#E9EFFD"/>
</linearGradient>
<linearGradient id="paint8_linear_101_766" x1="492.989" y1="176.755" x2="585.284" y2="176.755" gradientUnits="userSpaceOnUse">
<stop stop-color="#DAE3FE"/>
<stop offset="1" stop-color="#E9EFFD"/>
</linearGradient>
<linearGradient id="paint9_linear_101_766" x1="596.219" y1="173.672" x2="683.455" y2="173.672" gradientUnits="userSpaceOnUse">
<stop stop-color="#DAE3FE"/>
<stop offset="1" stop-color="#E9EFFD"/>
</linearGradient>
<linearGradient id="paint10_linear_101_766" x1="238.049" y1="711.652" x2="77.1356" y2="886.681" gradientUnits="userSpaceOnUse">
<stop stop-color="#09005D"/>
<stop offset="1" stop-color="#1A0F91"/>
</linearGradient>
<linearGradient id="paint11_linear_101_766" x1="163.786" y1="696.854" x2="178.251" y2="696.854" gradientUnits="userSpaceOnUse">
<stop stop-color="#FEBBBA"/>
<stop offset="1" stop-color="#FF928E"/>
</linearGradient>
<linearGradient id="paint12_linear_101_766" x1="291.645" y1="551.461" x2="157.95" y2="732.667" gradientUnits="userSpaceOnUse">
<stop stop-color="#09005D"/>
<stop offset="1" stop-color="#1A0F91"/>
</linearGradient>
<linearGradient id="paint13_linear_101_766" x1="191.107" y1="667.86" x2="28.4947" y2="844.737" gradientUnits="userSpaceOnUse">
<stop stop-color="#09005D"/>
<stop offset="1" stop-color="#1A0F91"/>
</linearGradient>
<linearGradient id="paint14_linear_101_766" x1="111.655" y1="693.814" x2="124.144" y2="693.814" gradientUnits="userSpaceOnUse">
<stop stop-color="#FEBBBA"/>
<stop offset="1" stop-color="#FF928E"/>
</linearGradient>
<linearGradient id="paint15_linear_101_766" x1="253.509" y1="525.89" x2="129.288" y2="694.255" gradientUnits="userSpaceOnUse">
<stop stop-color="#09005D"/>
<stop offset="1" stop-color="#1A0F91"/>
</linearGradient>
<linearGradient id="paint16_linear_101_766" x1="104.968" y1="356.898" x2="319.553" y2="-12.8084" gradientUnits="userSpaceOnUse">
<stop stop-color="#4F52FF"/>
<stop offset="1" stop-color="#4042E2"/>
</linearGradient>
<linearGradient id="paint17_linear_101_766" x1="259.243" y1="234.239" x2="234.142" y2="305.957" gradientUnits="userSpaceOnUse">
<stop stop-color="#FEBBBA"/>
<stop offset="1" stop-color="#FF928E"/>
</linearGradient>
<linearGradient id="paint18_linear_101_766" x1="297.672" y1="245.208" x2="273.164" y2="315.23" gradientUnits="userSpaceOnUse">
<stop stop-color="#FEBBBA"/>
<stop offset="1" stop-color="#FF928E"/>
</linearGradient>
<linearGradient id="paint19_linear_101_766" x1="291.932" y1="297.61" x2="311.156" y2="258.83" gradientUnits="userSpaceOnUse">
<stop stop-color="#FEBBBA"/>
<stop offset="1" stop-color="#FF928E"/>
</linearGradient>
<linearGradient id="paint20_linear_101_766" x1="84.6466" y1="348.106" x2="305.558" y2="-32.5004" gradientUnits="userSpaceOnUse">
<stop stop-color="#4F52FF"/>
<stop offset="1" stop-color="#4042E2"/>
</linearGradient>
<linearGradient id="paint21_linear_101_766" x1="62.5509" y1="407.721" x2="155.123" y2="407.721" gradientUnits="userSpaceOnUse">
<stop stop-color="#FEBBBA"/>
<stop offset="1" stop-color="#FF928E"/>
</linearGradient>
<linearGradient id="paint22_linear_101_766" x1="149.028" y1="408.58" x2="177.315" y2="408.58" gradientUnits="userSpaceOnUse">
<stop stop-color="#FEBBBA"/>
<stop offset="1" stop-color="#FF928E"/>
</linearGradient>
<linearGradient id="paint23_linear_101_766" x1="133.544" y1="311.559" x2="170.388" y2="311.559" gradientUnits="userSpaceOnUse">
<stop stop-color="#FEBBBA"/>
<stop offset="1" stop-color="#FF928E"/>
</linearGradient>
<linearGradient id="paint24_linear_101_766" x1="167.028" y1="324.398" x2="127.761" y2="300.447" gradientUnits="userSpaceOnUse">
<stop stop-color="#FEBBBA"/>
<stop offset="1" stop-color="#FF928E"/>
</linearGradient>
<linearGradient id="paint25_linear_101_766" x1="141.27" y1="236.553" x2="191.735" y2="276.412" gradientUnits="userSpaceOnUse">
<stop stop-color="#09005D"/>
<stop offset="1" stop-color="#1A0F91"/>
</linearGradient>
<linearGradient id="paint26_linear_101_766" x1="164.724" y1="321.027" x2="129.893" y2="299.783" gradientUnits="userSpaceOnUse">
<stop stop-color="#FEBBBA"/>
<stop offset="1" stop-color="#FF928E"/>
</linearGradient>
</defs>
</svg>
