<svg width="28" height="28" viewBox="0 0 28 28" fill="none" xmlns="http://www.w3.org/2000/svg">
<g clip-path="url(#clip0_154_558)">
<path d="M10.664 6.26842C10.664 6.27224 11.1765 6.42428 10.3523 6.40951L8.73139 6.09123C8.57882 6.14974 8.42733 6.21209 8.2753 6.27771L7.78749 6.23396C7.80882 6.23396 7.68577 6.11092 7.58952 5.23865C7.51793 4.58582 7.59266 3.92524 7.80827 3.3049C8.09374 2.46326 8.81506 1.36678 10.3797 0.666228C10.3851 0.682635 10.9626 0.315135 12.1488 0.100213C13.8568 -0.172724 15.6073 0.107216 17.1451 0.899197C17.1401 0.899197 17.6006 1.10318 18.282 1.64349C18.9508 2.16795 19.8428 3.13482 20.2021 4.3981C20.5876 5.67779 20.4952 6.98482 19.9451 8.36404C19.3249 9.72193 18.0813 10.7599 16.8569 11.5463C15.6308 12.3491 14.3959 13.019 13.5209 13.8016C12.6065 14.5672 12.1619 15.4362 12.0072 16.3429C11.7972 18.1728 12.1794 19.9474 12.0619 20.3226C12.0722 20.3258 12.0072 19.4552 11.8978 18.2444C11.7884 17.0249 11.8404 15.5806 12.7821 14.4754C13.6833 13.3816 15.2622 12.5422 16.4626 11.7727C17.6952 11.0197 18.5215 10.2453 18.6501 10.0572C18.6544 10.0572 18.0042 10.6965 16.9088 11.3959C15.8337 12.1069 14.3112 12.8566 13.2048 13.8426C10.8013 15.7102 11.9618 19.4208 11.6976 19.8583C11.7075 19.8626 11.6249 19.074 11.5434 17.9486C11.4505 16.8204 11.5494 15.4001 12.4687 14.2911C13.3574 13.1919 14.8203 12.359 15.9479 11.6169C17.0964 10.8851 17.8768 10.1758 18.0097 9.91771C17.5349 10.3365 17.0239 10.7124 16.4828 11.041C15.5263 11.6568 14.1613 12.3442 13.0162 13.2537C11.8251 14.1358 11.1644 15.4411 11.0605 16.6443C10.9391 17.8376 11.0419 18.8094 10.9807 19.1419C10.9714 19.1419 10.8473 16.9937 10.9129 16.4354C10.856 16.76 10.8195 17.0878 10.8035 17.417C10.7758 16.8835 10.8125 16.3487 10.9129 15.824C10.9952 15.5318 11.1074 15.2488 11.2476 14.9796C11.2405 14.9747 10.9561 15.5265 10.8057 16.157C10.6553 16.7876 10.6094 17.4712 10.5547 17.5543C10.5547 17.5543 10.6061 17.8485 10.6181 17.5641C10.6258 17.4225 10.6094 17.1359 10.6394 16.5978C10.6837 16.0706 10.5071 15.323 11.0868 14.3195C11.0813 14.3239 11.2837 13.5156 12.2899 12.6893C13.2677 11.834 14.3215 11.0826 16.1383 9.5442C17.0204 8.76545 18.1726 7.81553 18.2093 6.42701C18.3465 5.08224 18.1661 4.05631 16.6731 2.97295C15.1419 2.03615 13.7993 1.88631 12.2019 2.55787C10.5448 3.2174 10.1801 4.59334 10.664 6.26842Z" fill="#231F20"/>
<path d="M15.6034 24.9976C15.6034 24.9921 16.0409 25.2054 15.2703 25.0829L14.6453 25.0342C14.4889 25.0446 14.333 25.0473 14.1788 25.0451L13.7369 24.9358C13.7249 24.944 13.7369 24.8658 13.6724 24.623C13.5586 24.3987 13.5171 24.0941 12.5179 24.0476C12.5584 24.0438 11.6156 24.157 10.9046 24.6591C10.9046 24.6591 10.5508 24.8488 10.448 25.2573C10.3747 25.4422 10.4289 25.8638 10.565 26.2034C10.7105 26.5053 10.8664 26.6798 11.265 26.7798C12.0766 26.9986 13.4039 26.5305 13.948 26.0306C14.4801 25.4619 14.2903 25.6117 14.31 25.4044C14.3292 25.4181 14.4134 25.545 14.3407 25.6489C14.3106 25.813 13.814 26.3134 13.1649 26.56C12.5278 26.8334 11.8032 26.9105 11.3875 26.828C10.9588 26.7558 10.8341 26.5977 10.7635 26.6016C10.8854 26.7253 11.0382 26.8142 11.206 26.8591C11.5423 26.9833 12.2067 27.0013 12.8712 26.7984C13.5324 26.6141 14.1678 26.216 14.4189 25.8906C14.6671 25.5827 14.6103 25.4362 14.6212 25.3213C14.6212 25.3306 14.7519 25.4925 14.625 25.7851C14.5014 26.1034 13.9688 26.572 13.3207 26.8493C12.6771 27.1419 11.9459 27.2616 11.434 27.2266C10.9221 27.1916 10.6252 27.0434 10.5043 27.0369C10.6793 27.1849 10.8847 27.2928 11.1059 27.353C11.5232 27.4935 12.2122 27.511 12.9046 27.336C13.5969 27.161 14.2843 26.8291 14.7224 26.4249C15.0436 26.1539 15.2463 25.7681 15.2873 25.3498C15.3099 25.5461 15.2809 25.745 15.2031 25.9267C15.0937 26.216 14.8514 26.4654 14.7689 26.583C14.9091 26.478 15.036 26.3562 15.1467 26.2204C15.0059 26.4635 14.8225 26.6792 14.6053 26.8575C14.47 26.9475 14.3284 27.0275 14.1815 27.097C14.3878 27.0017 14.5864 26.8906 14.7754 26.7645C15.0757 26.5797 15.3338 26.2778 15.4043 26.2461C15.4043 26.2461 15.4404 26.0766 15.3496 26.2193C15.2403 26.3325 15.0543 26.846 13.9972 27.4902C13.6787 27.6263 13.3506 27.7387 13.0156 27.8266C12.3883 27.9583 11.311 28.2318 10.1942 27.6018C9.65284 27.2797 9.25909 26.6535 9.1005 25.9382C8.99136 25.5276 8.99249 25.0955 9.10378 24.6855C9.21507 24.2755 9.43257 23.9021 9.73432 23.603C10.4021 22.9244 11.3832 22.4951 12.5299 22.4174C13.1047 22.3988 13.7593 22.4464 14.4353 22.8494C15.1358 23.2317 15.6269 24.186 15.6034 24.9976Z" fill="#231F20"/>
</g>
<defs>
<clipPath id="clip0_154_558">
<rect width="28" height="28" fill="white"/>
</clipPath>
</defs>
</svg>
